<?xml version="1.0" standalone="no"?>
<!DOCTYPE svg PUBLIC "-//W3C//DTD SVG 20010904//EN"
 "http://www.w3.org/TR/2001/REC-SVG-20010904/DTD/svg10.dtd">
<svg version="1.0" xmlns="http://www.w3.org/2000/svg"
 width="64.000000pt" height="64.000000pt" viewBox="0 0 64.000000 64.000000"
 preserveAspectRatio="xMidYMid meet">

<g transform="translate(0.000000,64.000000) scale(0.100000,-0.100000)"
fill="#ffffff" stroke="none">
<path d="M540 570 c0 -5 10 -10 22 -10 19 0 11 -12 -47 -70 -51 -52 -76 -70
-96 -70 -22 0 -28 5 -33 33 -3 19 -20 47 -37 63 -25 24 -39 29 -79 29 -43 0
-54 -5 -82 -33 -28 -28 -33 -39 -33 -82 0 -40 5 -54 29 -79 17 -17 36 -31 43
-31 18 0 16 -14 -5 -33 -11 -10 -35 -17 -58 -17 -35 0 -46 -7 -94 -55 -29 -30
-51 -58 -47 -62 4 -4 31 17 60 45 46 45 58 52 93 52 31 0 46 6 68 29 16 16 40
32 55 36 30 7 81 52 81 72 0 8 13 13 37 13 33 0 46 9 110 72 60 60 73 69 73
50 0 -12 5 -22 10 -22 6 0 10 18 10 40 l0 40 -40 0 c-22 0 -40 -4 -40 -10z
m-221 -54 c47 -25 63 -83 37 -135 -35 -66 -137 -66 -172 0 -47 91 44 182 135
135z"/>
<path d="M250 476 c-15 -28 -8 -56 15 -56 8 0 15 -4 15 -10 0 -5 -9 -10 -20
-10 -24 0 -25 -6 -4 -27 14 -14 16 -14 29 3 21 27 18 55 -5 61 -11 3 -20 9
-20 14 0 5 9 9 20 9 24 0 25 6 6 26 -19 19 -20 18 -36 -10z"/>
<path d="M540 260 l0 -200 40 0 40 0 0 200 0 200 -40 0 -40 0 0 -200z m60 0
c0 -173 -1 -180 -20 -180 -19 0 -20 7 -20 180 0 173 1 180 20 180 19 0 20 -7
20 -180z"/>
<path d="M440 220 l0 -160 40 0 40 0 0 160 0 160 -40 0 -40 0 0 -160z m60 0
c0 -133 -1 -140 -20 -140 -19 0 -20 7 -20 140 0 133 1 140 20 140 19 0 20 -7
20 -140z"/>
<path d="M340 185 l0 -125 40 0 40 0 0 125 0 125 -40 0 -40 0 0 -125z m60 0
c0 -98 -1 -105 -20 -105 -19 0 -20 7 -20 105 0 98 1 105 20 105 19 0 20 -7 20
-105z"/>
<path d="M240 145 l0 -85 40 0 40 0 0 85 0 85 -40 0 -40 0 0 -85z m60 0 c0
-58 -2 -65 -20 -65 -18 0 -20 7 -20 65 0 58 2 65 20 65 18 0 20 -7 20 -65z"/>
<path d="M140 125 l0 -65 40 0 40 0 0 65 0 65 -40 0 -40 0 0 -65z m60 0 c0
-38 -3 -45 -20 -45 -17 0 -20 7 -20 45 0 38 3 45 20 45 17 0 20 -7 20 -45z"/>
<path d="M40 100 l0 -40 40 0 40 0 0 40 0 40 -40 0 -40 0 0 -40z m60 0 c0 -13
-7 -20 -20 -20 -13 0 -20 7 -20 20 0 13 7 20 20 20 13 0 20 -7 20 -20z"/>
</g>
</svg>
