<?xml version="1.0" standalone="no"?>
<!DOCTYPE svg PUBLIC "-//W3C//DTD SVG 20010904//EN"
 "http://www.w3.org/TR/2001/REC-SVG-20010904/DTD/svg10.dtd">
<svg version="1.0" xmlns="http://www.w3.org/2000/svg"
 width="512.000000pt" height="512.000000pt" viewBox="0 0 512.000000 512.000000"
 preserveAspectRatio="xMidYMid meet">

<g transform="translate(0.000000,512.000000) scale(0.100000,-0.100000)"
fill="#000000" stroke="none">
<path d="M857 5109 c-91 -21 -176 -90 -224 -181 l-28 -53 0 -2315 0 -2315 28
-53 c37 -70 97 -128 166 -161 l56 -26 1705 0 1705 0 56 26 c69 33 129 91 166
161 l28 53 3 1699 c2 1866 7 1733 -56 1757 -35 14 -89 -11 -102 -47 -6 -16
-10 -631 -10 -1691 l0 -1666 -25 -43 c-16 -28 -39 -49 -68 -63 l-44 -21 -1665
2 -1664 3 -37 25 c-20 13 -45 41 -56 61 l-21 37 0 2262 0 2262 21 37 c11 20
36 48 56 61 l37 25 1290 3 1291 2 385 -385 385 -385 -255 0 c-245 0 -258 1
-300 23 -53 26 -86 71 -95 130 -9 61 -24 85 -61 97 -26 9 -39 8 -62 -4 -43
-22 -56 -61 -43 -131 21 -114 91 -203 200 -254 l56 -26 380 -3 c209 -2 390 0
403 3 38 9 62 41 62 83 0 36 -17 54 -493 530 l-493 492 -1320 -1 c-728 -1
-1336 -5 -1357 -10z"/>
<path d="M1271 4109 c-34 -14 -50 -39 -51 -80 0 -24 7 -42 23 -57 23 -22 26
-22 438 -22 l416 0 21 23 c25 26 29 82 9 108 -29 37 -47 39 -444 38 -224 0
-398 -4 -412 -10z"/>
<path d="M1242 3557 c-43 -45 -19 -128 41 -142 12 -3 296 -4 630 -3 l609 3 24
28 c31 37 31 81 -1 112 l-24 25 -629 0 -629 0 -21 -23z"/>
<path d="M1245 2875 l-25 -24 0 -905 c0 -497 3 -912 6 -921 18 -46 -19 -45
1334 -45 1353 0 1316 -1 1334 45 3 9 6 424 6 921 l0 905 -25 24 -24 25 -384 0
-384 0 -27 -26 -26 -27 0 -263 0 -264 -820 0 -820 0 0 205 0 205 671 2 671 3
19 24 c27 33 25 86 -6 116 l-24 25 -726 0 -726 0 -24 -25z m2485 -935 l0 -790
-1170 0 -1170 0 0 205 0 205 820 0 820 0 0 -101 c0 -98 1 -101 29 -130 38 -38
74 -38 112 0 28 29 29 32 29 130 l0 101 126 0 c125 0 126 0 155 29 31 31 36
59 17 94 -22 42 -38 46 -170 47 l-128 0 0 210 0 210 126 0 c125 0 126 0 155
29 36 36 37 70 3 110 l-26 31 -129 0 -129 0 0 205 0 205 265 0 265 0 0 -790z
m-700 0 l0 -210 -820 0 -820 0 0 210 0 210 820 0 820 0 0 -210z"/>
</g>
</svg>
