<?xml version="1.0" standalone="no"?>
<!DOCTYPE svg PUBLIC "-//W3C//DTD SVG 20010904//EN"
 "http://www.w3.org/TR/2001/REC-SVG-20010904/DTD/svg10.dtd">
<svg version="1.0" xmlns="http://www.w3.org/2000/svg"
 width="64.000000pt" height="64.000000pt" viewBox="0 0 64.000000 64.000000"
 preserveAspectRatio="xMidYMid meet">

<g transform="translate(0.000000,64.000000) scale(0.100000,-0.100000)"
fill="#ffffff" stroke="none">
<path d="M160 550 c0 -27 5 -50 10 -50 6 0 10 18 10 40 l0 40 155 0 155 0 0
-50 0 -50 55 0 55 0 0 -210 0 -210 -210 0 -210 0 0 45 c0 25 -4 45 -10 45 -5
0 -10 -25 -10 -55 l0 -55 230 0 230 0 0 223 0 223 -58 57 -58 57 -172 0 -172
0 0 -50z m395 -20 l29 -30 -37 0 c-34 0 -37 2 -37 30 0 17 4 30 8 30 5 0 21
-13 37 -30z"/>
<path d="M89 447 c-153 -102 -20 -330 147 -251 100 48 100 210 0 258 -49 23
-107 20 -147 -7z m141 -12 c37 -19 62 -67 62 -116 -2 -129 -177 -165 -237 -49
-55 107 67 221 175 165z"/>
<path d="M160 367 c0 -51 1 -54 35 -70 40 -19 47 -7 10 17 -21 14 -25 25 -25
61 0 25 -4 45 -10 45 -5 0 -10 -24 -10 -53z"/>
<path d="M310 420 c0 -6 43 -10 110 -10 67 0 110 4 110 10 0 6 -43 10 -110 10
-67 0 -110 -4 -110 -10z"/>
<path d="M345 340 c3 -5 46 -10 96 -10 53 0 89 4 89 10 0 6 -39 10 -96 10 -61
0 -93 -4 -89 -10z"/>
<path d="M330 260 c0 -6 40 -10 100 -10 60 0 100 4 100 10 0 6 -40 10 -100 10
-60 0 -100 -4 -100 -10z"/>
<path d="M250 180 c0 -6 53 -10 140 -10 87 0 140 4 140 10 0 6 -53 10 -140 10
-87 0 -140 -4 -140 -10z"/>
</g>
</svg>
