<?xml version="1.0" standalone="no"?>
<!DOCTYPE svg PUBLIC "-//W3C//DTD SVG 20010904//EN"
 "http://www.w3.org/TR/2001/REC-SVG-20010904/DTD/svg10.dtd">
<svg version="1.0" xmlns="http://www.w3.org/2000/svg"
 width="512.000000pt" height="512.000000pt" viewBox="0 0 512.000000 512.000000"
 preserveAspectRatio="xMidYMid meet">

<g transform="translate(0.000000,512.000000) scale(0.100000,-0.100000)"
fill="#ffffff" stroke="none">
<path d="M1324 4676 c-34 -34 -34 -35 -34 -123 l0 -90 -197 -6 c-160 -4 -211
-9 -263 -26 -180 -56 -315 -192 -373 -376 l-22 -70 0 -1555 0 -1555 22 -70
c46 -145 144 -265 269 -332 126 -67 8 -63 1834 -63 1826 0 1708 -4 1834 63
125 67 223 187 269 332 l22 70 0 1555 0 1555 -22 70 c-58 184 -193 320 -373
376 -52 17 -103 22 -262 26 l-198 6 0 79 c0 122 -34 168 -121 168 -88 0 -129
-59 -129 -187 l0 -63 -255 0 -255 0 0 70 c0 120 -42 180 -127 180 -88 0 -123
-48 -123 -170 l0 -80 -260 0 -260 0 0 83 c0 118 -36 166 -126 167 -82 0 -124
-59 -124 -175 l0 -75 -255 0 -255 0 0 58 c-1 134 -40 192 -131 192 -45 0 -55
-4 -85 -34z m-34 -556 c3 -47 11 -95 18 -107 32 -56 129 -71 181 -27 36 30 51
77 51 162 l0 62 255 0 255 0 0 -70 c0 -81 16 -128 55 -158 50 -39 147 -22 177
31 7 12 15 60 18 107 l5 85 255 0 255 0 5 -85 c3 -47 12 -95 20 -106 34 -54
125 -72 174 -33 42 33 56 70 56 154 l0 75 254 0 253 0 5 -84 c6 -91 22 -127
69 -152 55 -28 134 -9 161 39 7 12 15 60 18 107 l5 85 180 -1 c171 0 183 -1
235 -25 79 -37 115 -71 152 -147 l33 -67 0 -255 0 -255 -1872 -3 -1873 -2 0
263 0 264 31 61 c32 65 67 100 133 134 56 29 117 36 286 34 l145 -1 5 -85z
m3140 -2077 l0 -1158 -24 -50 c-34 -73 -69 -110 -138 -144 l-61 -31 -1647 0
-1647 0 -61 31 c-69 34 -104 71 -138 144 l-24 50 0 1158 0 1157 1870 0 1870 0
0 -1157z"/>
<path d="M2379 3040 c-147 -25 -326 -97 -450 -180 -35 -24 -103 -82 -152 -129
-247 -241 -367 -564 -335 -906 33 -359 226 -667 537 -859 352 -217 813 -215
1167 3 337 209 533 556 535 951 2 246 -62 452 -202 656 -58 84 -200 225 -284
281 -129 86 -290 153 -435 179 -80 14 -305 17 -381 4z m393 -264 c359 -91 620
-392 657 -758 44 -436 -239 -835 -667 -940 -175 -43 -393 -23 -557 51 -203 92
-380 276 -458 477 -192 490 88 1038 597 1170 130 33 297 33 428 0z"/>
<path d="M2499 2565 c-14 -8 -35 -27 -45 -42 -18 -26 -19 -51 -19 -365 0 -324
1 -338 21 -365 11 -15 37 -36 58 -47 77 -38 159 17 171 116 4 29 5 184 3 343
-3 265 -5 292 -22 318 -36 54 -111 72 -167 42z"/>
<path d="M2484 1591 c-129 -59 -129 -253 0 -312 105 -48 221 8 244 117 10 48
-2 107 -30 147 -25 35 -90 67 -138 67 -19 0 -53 -9 -76 -19z"/>
</g>
</svg>
